#!OML:ASF H:\BabyWalks\Project 1\Capture day 1\Session 1\baby.ASF
:FULLY-SPECIFIED
:DEGREES
743
root 35.2371 17.4376 0.265063 170.097 81.8535 173.524
lowerback 18.1487 -0.293346 1.34339
upperback 8.33322 0.477507 1.18996
thorax -1.24548 0.506895 0.398321
lowerneck -1.51608 -3.26267 4.59909
upperneck 4.17485 -4.24149 -5.57309
head 1.34991 -2.13097 -2.63641
rclavicle -9.14409e-015 1.35174e-014
rhumerus -40.6207 2.9393 -78.8381
rradius 49.8891
rwrist -6.14311
rhand -13.9849 -17.0209
rfingers 7.12502
rthumb 12.1437 -46.6485
lclavicle -9.14409e-015 1.35174e-014
lhumerus -45.5186 0.688558 76.513
lradius 51.0989
lwrist -0.228011
lhand 8.13346 12.6618
lfingers 7.12502
lthumb 33.3539 39.5866
rfemur -16.3 -0.563308 16.8077
rtibia 31.5835
rfoot -9.56104 -11.228
rtoes 0.789648
lfemur 9.44403 -9.53585 -18.0864
ltibia 15.7371
lfoot -22.9371 -0.391813
ltoes -7.38667
744
root 35.2723 17.4381 0.285291 169.828 81.6918 173.139
lowerback 18.1585 -0.34858 1.37391
upperback 8.32846 0.413497 1.23794
thorax -1.25589 0.475403 0.443494
lowerneck -1.50919 -3.24594 4.58082
upperneck 4.10526 -4.21637 -5.67668
head 1.32623 -2.12019 -2.66581
rclavicle 8.15017e-015 0
rhumerus -40.5206 2.88016 -78.713
rradius 49.9587
rwrist -6.29453
rhand -14.269 -17.1561
rfingers 7.12502
rthumb 11.8697 -46.7997
lclavicle 8.15017e-015 0
lhumerus -45.4151 0.501236 76.7848
lradius 51.3267
lwrist -0.305501
lhand 8.97616 12.9238
lfingers 7.12502
lthumb 34.1546 39.6731
rfemur -16.3892 -0.75331 16.8051
rtibia 31.8203
rfoot -9.81597 -11.2134
rtoes 0.823451
lfemur 9.61081 -9.67661 -18.1
ltibia 15.3396
lfoot -22.7926 -0.360401
ltoes -7.56296
745
root 35.3064 17.4388 0.304616 169.373 81.5439 172.563
lowerback 18.1639 -0.393173 1.377
upperback 8.32437 0.358096 1.27211
thorax -1.26329 0.447651 0.488065
lowerneck -1.49419 -3.23022 4.55918
upperneck 4.02155 -4.19363 -5.76328
head 1.29686 -2.11024 -2.68846
rclavicle 1.41137e-014 -5.56597e-015
rhumerus -40.4325 2.8541 -78.6109
rradius 50.006
rwrist -6.3885
rhand -14.5338 -17.2626
rfingers 7.12502
rthumb 11.6144 -46.9207
lclavicle 1.41137e-014 -5.56597e-015
lhumerus -45.3089 0.316948 77.0425
lradius 51.6029
lwrist -0.316665
lhand 9.66867 13.2046
lfingers 7.12502
lthumb 34.812 39.8043
rfemur -16.4936 -0.936885 16.7702
rtibia 32.0655
rfoot -10.0669 -11.189
rtoes 0.853953
lfemur 9.80216 -9.80367 -18.1478
ltibia 14.8839
lfoot -22.6174 -0.328714
ltoes -7.73574
746
root 35.3397 17.4399 0.323341 168.792 81.4095 171.853
lowerback 18.1622 -0.427281 1.35753
upperback 8.31966 0.311697 1.29387
thorax -1.26767 0.423851 0.530681
lowerneck -1.46985 -3.2166 4.53135
upperneck 3.92727 -4.17469 -5.82723
head 1.26276 -2.10177 -2.70199
rclavicle 2.40529e-014 -2.78299e-014
rhumerus -40.3587 2.85701 -78.5329
rradius 50.034
rwrist -6.42824
rhand -14.7632 -17.3399
rfingers 7.12502
rthumb 11.3931 -47.0104
lclavicle 2.40529e-014 -2.78299e-014
lhumerus -45.2039 0.129447 77.2865
lradius 51.9244
lwrist -0.2596
lhand 10.1938 13.4805
lfingers 7.12502
lthumb 35.3101 39.9636
rfemur -16.6118 -1.10741 16.7124
rtibia 32.314
rfoot -10.312 -11.1623
rtoes 0.885872
lfemur 10.0174 -9.91315 -18.2182
ltibia 14.3664
lfoot -22.4124 -0.304064
ltoes -7.90187
747
root 35.3722 17.4413 0.341538 168.109 81.284 171.036
lowerback 18.15 -0.454072 1.31583
upperback 8.3152 0.270218 1.30499
thorax -1.26629 0.401978 0.573771
lowerneck -1.44537 -3.20249 4.50026
upperneck 3.83286 -4.15585 -5.87378
head 1.229 -2.09309 -2.70914
rclavicle 1.23246e-014 4.77083e-015
rhumerus -40.2976 2.89699 -78.479
rradius 50.0448
rwrist -6.42266
rhand -14.9588 -17.3886
rfingers 7.12502
rthumb 11.2045 -47.0695
lclavicle 1.23246e-014 4.77083e-015
lhumerus -45.101 -0.0567034 77.5173
lradius 52.2857
lwrist -0.143769
lhand 10.5337 13.7315
lfingers 7.12502
lthumb 35.6323 40.1375
rfemur -16.739 -1.26802 16.6344
rtibia 32.56
rfoot -10.5511 -11.1334
rtoes 0.910574
lfemur 10.2553 -10.0054 -18.3068
ltibia 13.789
lfoot -22.179 -0.291181
ltoes -8.05847
748
root 35.4042 17.443 0.359396 167.375 81.1684 170.161
lowerback 18.1278 -0.473407 1.25968
upperback 8.30945 0.235059 1.30634
thorax -1.26102 0.38284 0.613557
lowerneck -1.41639 -3.18822 4.46712
upperneck 3.73538 -4.13758 -5.9023
head 1.19381 -2.08437 -2.70973
rclavicle 1.15295e-014 -8.74653e-015
rhumerus -40.252 2.97323 -78.4517
rradius 50.0378
rwrist -6.38597
rhand -15.1149 -17.4092
rfingers 7.12502
rthumb 11.054 -47.0981
lclavicle 1.15295e-014 -8.74653e-015
lhumerus -45.0051 -0.250314 77.7349
lradius 52.6875
lwrist 0.0237694
lhand 10.6869 13.9283
lfingers 7.12502
lthumb 35.7776 40.2991
rfemur -16.8727 -1.41575 16.5451
rtibia 32.797
rfoot -10.7814 -11.1039
rtoes 0.935696
lfemur 10.5116 -10.0773 -18.4029
ltibia 13.1593
lfoot -21.9223 -0.292874
ltoes -8.21054
749
root 35.4357 17.445 0.377049 166.682 81.0643 169.323
lowerback 18.0966 -0.487536 1.20094
upperback 8.3022 0.205484 1.30278
thorax -1.25268 0.366307 0.64858
lowerneck -1.38573 -3.17241 4.43175
upperneck 3.64293 -4.11772 -5.91305
head 1.16042 -2.0746 -2.70405
rclavicle 1.19271e-014 0
rhumerus -40.2218 3.07459 -78.4468
rradius 50.0156
rwrist -6.31454
rhand -15.2211 -17.405
rfingers 7.12502
rthumb 10.9515 -47.0993
lclavicle 1.19271e-014 0
lhumerus -44.9174 -0.449803 77.9393
lradius 53.1247
lwrist 0.231468
lhand 10.6569 14.0599
lfingers 7.12502
lthumb 35.7491 40.4376
rfemur -17.007 -1.54684 16.4615
rtibia 33.0184
rfoot -11.0024 -11.0794
rtoes 0.954837
lfemur 10.7823 -10.1292 -18.4893
ltibia 12.4897
lfoot -21.6499 -0.309177
ltoes -8.35927
